<?xml version="1.0" standalone="no"?>
<!DOCTYPE svg PUBLIC "-//W3C//DTD SVG 20010904//EN"
 "http://www.w3.org/TR/2001/REC-SVG-20010904/DTD/svg10.dtd">
<svg version="1.0" xmlns="http://www.w3.org/2000/svg"
 width="286.000000pt" height="286.000000pt" viewBox="0 0 286.000000 286.000000"
 preserveAspectRatio="xMidYMid meet">
<metadata>
Created by potrace 1.11, written by Peter Selinger 2001-2013
</metadata>
<g transform="translate(0.000000,286.000000) scale(0.100000,-0.100000)"
fill="#000000" stroke="none">
<path d="M120 2636 c0 -174 3 -226 13 -227 6 0 19 -2 27 -4 8 -1 55 -8 105
-14 50 -7 104 -14 120 -16 62 -9 266 -35 275 -35 5 0 23 28 41 61 62 115 173
209 248 209 44 0 105 -37 134 -82 28 -43 62 -142 71 -206 2 -19 7 -36 10 -40
4 -3 37 -18 76 -33 146 -57 321 -198 405 -329 54 -84 81 -149 97 -235 10 -57
18 -75 43 -95 35 -29 339 -294 374 -326 36 -33 30 -88 -25 -224 -51 -128 -63
-146 -105 -155 -21 -5 -33 -17 -47 -48 -11 -23 -28 -50 -39 -59 -11 -10 -90
-34 -181 -56 -151 -35 -164 -40 -181 -68 -26 -42 -48 -59 -116 -91 -54 -25
-70 -28 -170 -28 -123 0 -181 16 -285 79 l-57 33 -116 -33 c-300 -87 -499
-180 -654 -306 l-63 -51 0 -129 0 -129 688 4 c669 3 690 4 787 26 610 137
1015 528 1141 1102 15 67 19 127 19 299 0 237 -7 292 -61 460 -67 211 -166
371 -329 536 -208 210 -448 336 -770 406 -96 21 -128 22 -787 25 l-688 4 0
-225z"/>
<path d="M943 2568 c-107 -28 -226 -279 -208 -438 8 -69 42 -141 77 -160 25
-14 31 -13 90 18 35 18 87 35 115 38 28 4 56 10 63 14 18 11 30 93 31 211 0
149 -27 245 -83 295 -31 28 -47 32 -85 22z"/>
<path d="M130 1035 c0 -393 3 -715 7 -715 4 0 32 26 63 58 178 182 375 309
593 382 53 18 67 27 63 39 -3 9 -15 43 -27 76 -24 65 -32 219 -16 303 l9 43
-109 108 c-160 159 -321 280 -505 380 l-78 42 0 -716z"/>
<path d="M1540 1732 c0 -4 9 -38 20 -76 29 -101 41 -205 41 -353 -1 -73 4
-135 9 -138 5 -3 19 15 31 40 12 26 45 71 72 101 43 47 50 61 49 92 -4 104
-62 223 -146 298 -44 40 -76 55 -76 36z"/>
<path d="M2125 1181 c-11 -5 -45 -11 -74 -15 -61 -7 -66 -10 -56 -26 11 -17
106 -62 121 -56 17 7 53 77 47 94 -5 14 -10 14 -38 3z"/>
</g>
</svg>
